<?xml version="1.0" encoding="UTF-8" standalone="no"?>
<svg
   xmlns:dc="http://purl.org/dc/elements/1.1/"
   xmlns:cc="http://creativecommons.org/ns#"
   xmlns:rdf="http://www.w3.org/1999/02/22-rdf-syntax-ns#"
   xmlns:svg="http://www.w3.org/2000/svg"
   xmlns="http://www.w3.org/2000/svg"
   xmlns:sodipodi="http://sodipodi.sourceforge.net/DTD/sodipodi-0.dtd"
   xmlns:inkscape="http://www.inkscape.org/namespaces/inkscape"
   version="1.1"
   width="145"
   height="145"
   id="svg11"
   sodipodi:docname="team210.svg"
   inkscape:version="0.92.3 (2405546, 2018-03-11)"
   inkscape:export-filename="C:\Demo\visuals-locke\sketch\team210.png"
   inkscape:export-xdpi="96"
   inkscape:export-ydpi="96">
  <metadata
     id="metadata17">
    <rdf:RDF>
      <cc:Work
         rdf:about="">
        <dc:format>image/svg+xml</dc:format>
        <dc:type
           rdf:resource="http://purl.org/dc/dcmitype/StillImage" />
        <dc:title>QR Code</dc:title>
      </cc:Work>
    </rdf:RDF>
  </metadata>
  <defs
     id="defs15" />
  <sodipodi:namedview
     pagecolor="#ffffff"
     bordercolor="#666666"
     borderopacity="1"
     objecttolerance="10"
     gridtolerance="10"
     guidetolerance="10"
     inkscape:pageopacity="0"
     inkscape:pageshadow="2"
     inkscape:window-width="1920"
     inkscape:window-height="1017"
     id="namedview13"
     showgrid="false"
     inkscape:zoom="2.6915677"
     inkscape:cx="4.3146412"
     inkscape:cy="125.81154"
     inkscape:window-x="-8"
     inkscape:window-y="-8"
     inkscape:window-maximized="1"
     inkscape:current-layer="svg11">
    <inkscape:grid
       type="xygrid"
       id="grid824" />
  </sodipodi:namedview>
  <!-- Created with https://api.qrserver.com (QR Code API, see goQR.me/api for information) -->
  <title
     id="title2">QR Code</title>
  <desc
     id="desc4">https://www.facebook.com/Team210-314068736039913/</desc>
  <g
     id="elements"
     transform="matrix(0.62500002,0,0,0.62500002,-5.0000002,-5.000005)">
    <path
       style="fill:#000000"
       d="m 8,8 h 8 v 8 H 8 Z m 8,0 h 8 v 8 h -8 z m 8,0 h 8 v 8 h -8 z m 8,0 h 8 v 8 h -8 z m 8,0 h 8 v 8 h -8 z m 8,0 h 8 v 8 h -8 z m 8,0 h 8 v 8 h -8 z m 24,0 h 8 v 8 h -8 z m 64,0 h 8 v 8 h -8 z m 8,0 h 8 v 8 h -8 z m 8,0 h 8 v 8 h -8 z m 8,0 h 8 v 8 h -8 z m 16,0 h 8 v 8 h -8 z m 8,0 h 8 v 8 h -8 z m 8,0 h 8 v 8 h -8 z m 8,0 h 8 v 8 h -8 z m 8,0 h 8 v 8 h -8 z m 8,0 h 8 v 8 h -8 z m 8,0 h 8 v 8 h -8 z M 8,16 h 8 v 8 H 8 Z m 48,0 h 8 v 8 h -8 z m 16,0 h 8 v 8 h -8 z m 8,0 h 8 v 8 h -8 z m 16,0 h 8 v 8 h -8 z m 8,0 h 8 v 8 h -8 z m 8,0 h 8 v 8 h -8 z m 8,0 h 8 v 8 h -8 z m 16,0 h 8 v 8 h -8 z m 8,0 h 8 v 8 h -8 z m 24,0 h 8 v 8 h -8 z m 16,0 h 8 v 8 h -8 z m 48,0 h 8 v 8 h -8 z M 8,24 h 8 v 8 H 8 Z m 16,0 h 8 v 8 h -8 z m 8,0 h 8 v 8 h -8 z m 8,0 h 8 v 8 h -8 z m 16,0 h 8 v 8 h -8 z m 24,0 h 8 v 8 h -8 z m 8,0 h 8 v 8 h -8 z m 8,0 h 8 v 8 h -8 z m 24,0 h 8 v 8 h -8 z m 16,0 h 8 v 8 h -8 z m 24,0 h 8 v 8 h -8 z m 24,0 h 8 v 8 h -8 z m 16,0 h 8 v 8 h -8 z m 8,0 h 8 v 8 h -8 z m 8,0 h 8 v 8 h -8 z m 16,0 h 8 v 8 h -8 z M 8,32 h 8 v 8 H 8 Z m 16,0 h 8 v 8 h -8 z m 8,0 h 8 v 8 h -8 z m 8,0 h 8 v 8 h -8 z m 16,0 h 8 v 8 h -8 z m 16,0 h 8 v 8 h -8 z m 8,0 h 8 v 8 h -8 z m 16,0 h 8 v 8 h -8 z m 24,0 h 8 v 8 h -8 z m 8,0 h 8 v 8 h -8 z m 16,0 h 8 v 8 h -8 z m 40,0 h 8 v 8 h -8 z m 16,0 h 8 v 8 h -8 z m 8,0 h 8 v 8 h -8 z m 8,0 h 8 v 8 h -8 z m 16,0 h 8 v 8 h -8 z M 8,40 h 8 v 8 H 8 Z m 16,0 h 8 v 8 h -8 z m 8,0 h 8 v 8 h -8 z m 8,0 h 8 v 8 h -8 z m 16,0 h 8 v 8 h -8 z m 32,0 h 8 v 8 h -8 z m 16,0 h 8 v 8 h -8 z m 24,0 h 8 v 8 h -8 z m 16,0 h 8 v 8 h -8 z m 8,0 h 8 v 8 h -8 z m 8,0 h 8 v 8 h -8 z m 8,0 h 8 v 8 h -8 z m 16,0 h 8 v 8 h -8 z m 16,0 h 8 v 8 h -8 z m 8,0 h 8 v 8 h -8 z m 8,0 h 8 v 8 h -8 z m 16,0 h 8 v 8 h -8 z M 8,48 h 8 v 8 H 8 Z m 48,0 h 8 v 8 h -8 z m 16,0 h 8 v 8 h -8 z m 16,0 h 8 v 8 h -8 z m 24,0 h 8 v 8 h -8 z m 16,0 h 8 v 8 h -8 z m 56,0 h 8 v 8 h -8 z m 48,0 h 8 v 8 h -8 z M 8,56 h 8 v 8 H 8 Z m 8,0 h 8 v 8 h -8 z m 8,0 h 8 v 8 h -8 z m 8,0 h 8 v 8 h -8 z m 8,0 h 8 v 8 h -8 z m 8,0 h 8 v 8 h -8 z m 8,0 h 8 v 8 h -8 z m 16,0 h 8 v 8 h -8 z m 16,0 h 8 v 8 h -8 z m 16,0 h 8 v 8 h -8 z m 16,0 h 8 v 8 h -8 z m 16,0 h 8 v 8 h -8 z m 16,0 h 8 v 8 h -8 z m 16,0 h 8 v 8 h -8 z m 16,0 h 8 v 8 h -8 z m 8,0 h 8 v 8 h -8 z m 8,0 h 8 v 8 h -8 z m 8,0 h 8 v 8 h -8 z m 8,0 h 8 v 8 h -8 z m 8,0 h 8 v 8 h -8 z m 8,0 h 8 v 8 h -8 z m -128,8 h 8 v 8 h -8 z m 56,0 h 8 v 8 h -8 z m 8,0 h 8 v 8 h -8 z M 8,72 h 8 v 8 H 8 Z m 8,0 h 8 v 8 h -8 z m 8,0 h 8 v 8 h -8 z m 8,0 h 8 v 8 h -8 z m 8,0 h 8 v 8 h -8 z m 16,0 h 8 v 8 h -8 z m 8,0 h 8 v 8 h -8 z m 8,0 h 8 v 8 h -8 z m 8,0 h 8 v 8 h -8 z m 8,0 h 8 v 8 h -8 z m 16,0 h 8 v 8 h -8 z m 8,0 h 8 v 8 h -8 z m 16,0 h 8 v 8 h -8 z m 16,0 h 8 v 8 h -8 z m 8,0 h 8 v 8 h -8 z m 8,0 h 8 v 8 h -8 z m 16,0 h 8 v 8 h -8 z m 16,0 h 8 v 8 h -8 z m 16,0 h 8 v 8 h -8 z m 16,0 h 8 v 8 h -8 z M 8,80 h 8 v 8 H 8 Z m 24,0 h 8 v 8 h -8 z m 40,0 h 8 v 8 h -8 z m 8,0 h 8 v 8 h -8 z m 64,0 h 8 v 8 h -8 z m 8,0 h 8 v 8 h -8 z m 8,0 h 8 v 8 h -8 z m 16,0 h 8 v 8 h -8 z m 8,0 h 8 v 8 h -8 z m 8,0 h 8 v 8 h -8 z m 8,0 h 8 v 8 h -8 z m 32,0 h 8 v 8 h -8 z M 16,88 h 8 v 8 h -8 z m 8,0 h 8 v 8 h -8 z m 8,0 h 8 v 8 h -8 z m 24,0 h 8 v 8 h -8 z m 8,0 h 8 v 8 h -8 z m 8,0 h 8 v 8 h -8 z m 8,0 h 8 v 8 h -8 z m 16,0 h 8 v 8 h -8 z m 8,0 h 8 v 8 h -8 z m 16,0 h 8 v 8 h -8 z m 8,0 h 8 v 8 h -8 z m 8,0 h 8 v 8 h -8 z m 8,0 h 8 v 8 h -8 z m 24,0 h 8 v 8 h -8 z M 24,96 h 8 v 8 h -8 z m 8,0 h 8 v 8 h -8 z m 8,0 h 8 v 8 h -8 z m 40,0 h 8 v 8 h -8 z m 8,0 h 8 v 8 h -8 z m 8,0 h 8 v 8 h -8 z m 16,0 h 8 v 8 h -8 z m 8,0 h 8 v 8 h -8 z m 8,0 h 8 v 8 h -8 z m 8,0 h 8 v 8 h -8 z m 24,0 h 8 v 8 h -8 z m 16,0 h 8 v 8 h -8 z m 8,0 h 8 v 8 h -8 z m 8,0 h 8 v 8 h -8 z m 16,0 h 8 v 8 h -8 z m 16,0 h 8 v 8 h -8 z M 8,104 h 8 v 8 H 8 Z m 16,0 h 8 v 8 h -8 z m 32,0 h 8 v 8 h -8 z m 16,0 h 8 v 8 h -8 z m 8,0 h 8 v 8 h -8 z m 16,0 h 8 v 8 h -8 z m 24,0 h 8 v 8 h -8 z m 40,0 h 8 v 8 h -8 z m 48,0 h 8 v 8 h -8 z m 8,0 h 8 v 8 h -8 z M 8,112 h 8 v 8 H 8 Z m 16,0 h 8 v 8 h -8 z m 8,0 h 8 v 8 h -8 z m 8,0 h 8 v 8 h -8 z m 24,0 h 8 v 8 h -8 z m 24,0 h 8 v 8 h -8 z m 16,0 h 8 v 8 h -8 z m 24,0 h 8 v 8 h -8 z m 32,0 h 8 v 8 h -8 z m 8,0 h 8 v 8 h -8 z m 8,0 h 8 v 8 h -8 z m 8,0 h 8 v 8 h -8 z m 16,0 h 8 v 8 h -8 z m 32,0 h 8 v 8 h -8 z m -184,8 h 8 v 8 h -8 z m 8,0 h 8 v 8 h -8 z m 8,0 h 8 v 8 h -8 z m 16,0 h 8 v 8 h -8 z m 48,0 h 8 v 8 h -8 z m 40,0 h 8 v 8 h -8 z m 8,0 h 8 v 8 h -8 z m 16,0 h 8 v 8 h -8 z m 16,0 h 8 v 8 h -8 z m 8,0 h 8 v 8 h -8 z m -192,8 h 8 v 8 h -8 z m 8,0 h 8 v 8 h -8 z m 32,0 h 8 v 8 h -8 z m 24,0 h 8 v 8 h -8 z m 16,0 h 8 v 8 h -8 z m 24,0 h 8 v 8 h -8 z m 24,0 h 8 v 8 h -8 z m 8,0 h 8 v 8 h -8 z m 8,0 h 8 v 8 h -8 z m 24,0 h 8 v 8 h -8 z m 8,0 h 8 v 8 h -8 z m 24,0 h 8 v 8 h -8 z m -200,8 h 8 v 8 h -8 z m 24,0 h 8 v 8 h -8 z m 8,0 h 8 v 8 h -8 z m 8,0 h 8 v 8 h -8 z m 8,0 h 8 v 8 h -8 z m 32,0 h 8 v 8 h -8 z m 24,0 h 8 v 8 h -8 z m 16,0 h 8 v 8 h -8 z m 16,0 h 8 v 8 h -8 z m 32,0 h 8 v 8 h -8 z m 16,0 h 8 v 8 h -8 z m 8,0 h 8 v 8 h -8 z M 8,144 h 8 v 8 H 8 Z m 8,0 h 8 v 8 h -8 z m 8,0 h 8 v 8 h -8 z m 16,0 h 8 v 8 h -8 z m 24,0 h 8 v 8 h -8 z m 8,0 h 8 v 8 h -8 z m 16,0 h 8 v 8 h -8 z m 32,0 h 8 v 8 h -8 z m 32,0 h 8 v 8 h -8 z m 8,0 h 8 v 8 h -8 z m 8,0 h 8 v 8 h -8 z m 8,0 h 8 v 8 h -8 z m 8,0 h 8 v 8 h -8 z m 8,0 h 8 v 8 h -8 z m 8,0 h 8 v 8 h -8 z m 16,0 h 8 v 8 h -8 z m 16,0 h 8 v 8 h -8 z M 8,152 h 8 v 8 H 8 Z m 48,0 h 8 v 8 h -8 z m 8,0 h 8 v 8 h -8 z m 16,0 h 8 v 8 h -8 z m 16,0 h 8 v 8 h -8 z m 8,0 h 8 v 8 h -8 z m 8,0 h 8 v 8 h -8 z m 16,0 h 8 v 8 h -8 z m 40,0 h 8 v 8 h -8 z m 8,0 h 8 v 8 h -8 z m 16,0 h 8 v 8 h -8 z m 24,0 h 8 v 8 h -8 z M 8,160 h 8 v 8 H 8 Z m 56,0 h 8 v 8 h -8 z m 8,0 h 8 v 8 h -8 z m 8,0 h 8 v 8 h -8 z m 8,0 h 8 v 8 h -8 z m 8,0 h 8 v 8 h -8 z m 16,0 h 8 v 8 h -8 z m 8,0 h 8 v 8 h -8 z m 8,0 h 8 v 8 h -8 z m 32,0 h 8 v 8 h -8 z m 8,0 h 8 v 8 h -8 z m 16,0 h 8 v 8 h -8 z m 8,0 h 8 v 8 h -8 z m 8,0 h 8 v 8 h -8 z m 24,0 h 8 v 8 h -8 z M 8,168 h 8 v 8 H 8 Z m 32,0 h 8 v 8 h -8 z m 8,0 h 8 v 8 h -8 z m 8,0 h 8 v 8 h -8 z m 16,0 h 8 v 8 h -8 z m 16,0 h 8 v 8 h -8 z m 8,0 h 8 v 8 h -8 z m 8,0 h 8 v 8 h -8 z m 8,0 h 8 v 8 h -8 z m 8,0 h 8 v 8 h -8 z m 8,0 h 8 v 8 h -8 z m 8,0 h 8 v 8 h -8 z m 8,0 h 8 v 8 h -8 z m 16,0 h 8 v 8 h -8 z m 8,0 h 8 v 8 h -8 z m 8,0 h 8 v 8 h -8 z m 8,0 h 8 v 8 h -8 z m 8,0 h 8 v 8 h -8 z m 8,0 h 8 v 8 h -8 z m 16,0 h 8 v 8 h -8 z m 8,0 h 8 v 8 h -8 z m 8,0 h 8 v 8 h -8 z m -160,8 h 8 v 8 h -8 z m 16,0 h 8 v 8 h -8 z m 16,0 h 8 v 8 h -8 z m 16,0 h 8 v 8 h -8 z m 32,0 h 8 v 8 h -8 z m 16,0 h 8 v 8 h -8 z m 32,0 h 8 v 8 h -8 z m 8,0 h 8 v 8 h -8 z m 8,0 h 8 v 8 h -8 z m 8,0 h 8 v 8 h -8 z m 8,0 h 8 v 8 h -8 z M 8,184 h 8 v 8 H 8 Z m 8,0 h 8 v 8 h -8 z m 8,0 h 8 v 8 h -8 z m 8,0 h 8 v 8 h -8 z m 8,0 h 8 v 8 h -8 z m 8,0 h 8 v 8 h -8 z m 8,0 h 8 v 8 h -8 z m 16,0 h 8 v 8 h -8 z m 8,0 h 8 v 8 h -8 z m 8,0 h 8 v 8 h -8 z m 16,0 h 8 v 8 h -8 z m 8,0 h 8 v 8 h -8 z m 16,0 h 8 v 8 h -8 z m 8,0 h 8 v 8 h -8 z m 16,0 h 8 v 8 h -8 z m 8,0 h 8 v 8 h -8 z m 8,0 h 8 v 8 h -8 z m 16,0 h 8 v 8 h -8 z m 16,0 h 8 v 8 h -8 z m 8,0 h 8 v 8 h -8 z m 8,0 h 8 v 8 h -8 z M 8,192 h 8 v 8 H 8 Z m 48,0 h 8 v 8 h -8 z m 40,0 h 8 v 8 h -8 z m 32,0 h 8 v 8 h -8 z m 32,0 h 8 v 8 h -8 z m 8,0 h 8 v 8 h -8 z m 32,0 h 8 v 8 h -8 z m 24,0 h 8 v 8 h -8 z M 8,200 h 8 v 8 H 8 Z m 16,0 h 8 v 8 h -8 z m 8,0 h 8 v 8 h -8 z m 8,0 h 8 v 8 h -8 z m 16,0 h 8 v 8 h -8 z m 16,0 h 8 v 8 h -8 z m 24,0 h 8 v 8 h -8 z m 16,0 h 8 v 8 h -8 z m 16,0 h 8 v 8 h -8 z m 8,0 h 8 v 8 h -8 z m 8,0 h 8 v 8 h -8 z m 24,0 h 8 v 8 h -8 z m 8,0 h 8 v 8 h -8 z m 8,0 h 8 v 8 h -8 z m 8,0 h 8 v 8 h -8 z m 8,0 h 8 v 8 h -8 z m 16,0 h 8 v 8 h -8 z m 8,0 h 8 v 8 h -8 z M 8,208 h 8 v 8 H 8 Z m 16,0 h 8 v 8 h -8 z m 8,0 h 8 v 8 h -8 z m 8,0 h 8 v 8 h -8 z m 16,0 h 8 v 8 h -8 z m 16,0 h 8 v 8 h -8 z m 8,0 h 8 v 8 h -8 z m 32,0 h 8 v 8 h -8 z m 32,0 h 8 v 8 h -8 z m 8,0 h 8 v 8 h -8 z m 16,0 h 8 v 8 h -8 z m 24,0 h 8 v 8 h -8 z m 16,0 h 8 v 8 h -8 z m 8,0 h 8 v 8 h -8 z m 8,0 h 8 v 8 h -8 z m 8,0 h 8 v 8 h -8 z M 8,216 h 8 v 8 H 8 Z m 16,0 h 8 v 8 h -8 z m 8,0 h 8 v 8 h -8 z m 8,0 h 8 v 8 h -8 z m 16,0 h 8 v 8 h -8 z m 16,0 h 8 v 8 h -8 z m 32,0 h 8 v 8 h -8 z m 24,0 h 8 v 8 h -8 z m 48,0 h 8 v 8 h -8 z m 8,0 h 8 v 8 h -8 z m 8,0 h 8 v 8 h -8 z m 8,0 h 8 v 8 h -8 z m 8,0 h 8 v 8 h -8 z m 8,0 h 8 v 8 h -8 z m 8,0 h 8 v 8 h -8 z M 8,224 h 8 v 8 H 8 Z m 48,0 h 8 v 8 h -8 z m 16,0 h 8 v 8 h -8 z m 8,0 h 8 v 8 h -8 z m 16,0 h 8 v 8 h -8 z m 8,0 h 8 v 8 h -8 z m 64,0 h 8 v 8 h -8 z m 24,0 h 8 v 8 h -8 z m 16,0 h 8 v 8 h -8 z m 16,0 h 8 v 8 h -8 z M 8,232 h 8 v 8 H 8 Z m 8,0 h 8 v 8 h -8 z m 8,0 h 8 v 8 h -8 z m 8,0 h 8 v 8 h -8 z m 8,0 h 8 v 8 h -8 z m 8,0 h 8 v 8 h -8 z m 8,0 h 8 v 8 h -8 z m 16,0 h 8 v 8 h -8 z m 16,0 h 8 v 8 h -8 z m 16,0 h 8 v 8 h -8 z m 24,0 h 8 v 8 h -8 z m 8,0 h 8 v 8 h -8 z m 8,0 h 8 v 8 h -8 z m 8,0 h 8 v 8 h -8 z m 8,0 h 8 v 8 h -8 z m 32,0 h 8 v 8 h -8 z m 8,0 h 8 v 8 h -8 z m 8,0 h 8 v 8 h -8 z m 8,0 h 8 v 8 h -8 z"
       id="path8"
       inkscape:connector-curvature="0" />
  </g>
</svg>
